<svg width="170" height="142" viewBox="0 0 170 142" fill="none" xmlns="http://www.w3.org/2000/svg">
<path d="M29.025 80.5C29.025 80.5 26.025 85 19.525 88C13.025 91 9.05327 89.2111 5.52496 94C2.57205 98.0079 3.02496 106.5 3.02496 106.5" stroke="black" stroke-width="5"/>
<path d="M40.525 81C40.525 81 43.525 85.5 50.025 88.5C56.525 91.5 60.4966 89.7111 64.025 94.5C66.9779 98.5079 66.525 107 66.525 107" stroke="black" stroke-width="5"/>
<path d="M51.025 61C51.025 72.1929 43.4732 80.5 35.025 80.5C26.5768 80.5 19.025 72.1929 19.025 61C19.025 49.8071 26.5768 41.5 35.025 41.5C43.4732 41.5 51.025 49.8071 51.025 61Z" stroke="black" stroke-width="5"/>
<path d="M129.55 80.5C129.55 80.5 126.55 85 120.05 88C113.55 91 109.578 89.2111 106.05 94C103.097 98.0079 103.55 106.5 103.55 106.5" stroke="black" stroke-width="5"/>
<path d="M141.05 81C141.05 81 144.05 85.5 150.55 88.5C157.05 91.5 161.022 89.7111 164.55 94.5C167.503 98.5079 167.05 107 167.05 107" stroke="black" stroke-width="5"/>
<path d="M151.025 61C151.025 72.1929 143.473 80.5 135.025 80.5C126.577 80.5 119.025 72.1929 119.025 61C119.025 49.8071 126.577 41.5 135.025 41.5C143.473 41.5 151.025 49.8071 151.025 61Z" stroke="black" stroke-width="5"/>
<path d="M34.525 119.5C34.525 119.5 55.525 139.5 86.275 139.5C117.025 139.5 136.025 119.5 136.025 119.5" stroke="black" stroke-width="5"/>
<path d="M29.525 129.5C29.525 131.157 30.8681 132.5 32.525 132.5C34.1818 132.5 35.525 131.157 35.525 129.5H29.525ZM29.525 114V122.5H35.525V114H29.525ZM29.525 122.5V129.5H35.525V122.5H29.525Z" fill="black"/>
<path d="M45.025 120C46.6818 120 48.025 118.657 48.025 117C48.025 115.343 46.6818 114 45.025 114L45.025 120ZM29.525 120L38.025 120L38.025 114L29.525 114L29.525 120ZM38.025 120L45.025 120L45.025 114L38.025 114L38.025 120Z" fill="black"/>
<path d="M136.025 23C136.025 23 115.025 3.00001 84.275 3C53.525 3 34.525 23 34.525 23" stroke="black" stroke-width="5"/>
<path d="M141.025 13C141.025 11.3432 139.682 10 138.025 10C136.368 10 135.025 11.3432 135.025 13L141.025 13ZM141.025 28.5L141.025 20L135.025 20L135.025 28.5L141.025 28.5ZM141.025 20L141.025 13L135.025 13L135.025 20L141.025 20Z" fill="black"/>
<path d="M125.525 22.5C123.868 22.5 122.525 23.8432 122.525 25.5C122.525 27.1569 123.868 28.5 125.525 28.5L125.525 22.5ZM141.025 22.5L132.525 22.5L132.525 28.5L141.025 28.5L141.025 22.5ZM132.525 22.5L125.525 22.5L125.525 28.5L132.525 28.5L132.525 22.5Z" fill="black"/>
</svg>
